<svg xmlns="http://www.w3.org/2000/svg" width="22" height="22" viewBox="0 0 22 22" fill="none"><rect x="0.5" y="0.5" width="21" height="21" rx="3.5" fill="#4CCD59" stroke="#4CCD59"/><path d="M4.76842 10.3346C5.00418 10.3346 5.18337 10.4491 5.34841 10.5956C6.47539 11.58 7.60237 12.569 8.73406 13.5489C8.86609 13.6633 9.04528 13.7595 9.21975 13.8007C9.49795 13.8648 9.72901 13.7412 9.92234 13.5351C11.3134 12.0333 12.7091 10.5315 14.1049 9.02964C14.9584 8.10932 15.8119 7.18899 16.6701 6.26866C16.9153 6.00309 17.2406 5.93441 17.5471 6.06261C17.8442 6.18624 18.0422 6.47928 17.9904 6.78606C17.9621 6.95089 17.8819 7.12946 17.7688 7.25309C16.2787 8.87397 14.7745 10.4903 13.275 12.1066C12.1763 13.2879 11.0776 14.4738 9.97892 15.6551C9.5734 16.0901 9.15845 16.1084 8.71991 15.7055C7.23928 14.3502 5.75865 12.9948 4.2733 11.6441C4.04224 11.4335 3.94794 11.1862 4.0281 10.8886C4.09883 10.6185 4.28273 10.4445 4.56094 10.3666C4.62695 10.3483 4.69768 10.3437 4.76842 10.3346Z" fill="white"/></svg>